<?xml version="1.0" standalone="no"?><!DOCTYPE svg PUBLIC "-//W3C//DTD SVG 1.1//EN" "http://www.w3.org/Graphics/SVG/1.1/DTD/svg11.dtd"><svg t="1576646435940" class="icon" viewBox="0 0 1024 1024" version="1.1" xmlns="http://www.w3.org/2000/svg" p-id="861" xmlns:xlink="http://www.w3.org/1999/xlink" width="32" height="32"><defs><style type="text/css"></style></defs><path d="M513.47865486 766.33443328c140.75046457 0 254.85021525-114.09975069 254.85021525-254.85021639 0-140.74930062-114.09975069-254.85021525-254.85021525-254.85021526-140.74930062 0-254.85021525 114.09975069-254.85021525 254.85021526 0 140.75046457 114.10091463 254.85021525 254.85021525 254.85021639zM112.57810375 196.67397063a512.46446706 512.46446706 0 0 1 82.28073131-83.038687c13.59547278-10.89780167 33.00659997-10.63467122 46.30168576 0.62755498 18.58796999 15.74592626 41.82264263 24.87865685 66.71410631 25.74838557 58.72122083 2.05032334 108.49483435-42.74010681 112.74101874-101.1376549 1.26442496-17.39456853 14.68758243-31.44877397 32.00647054-33.51074019a513.27947435 513.27947435 0 0 1 78.6458021-3.26817565 515.93988779 515.93988779 0 0 1 38.21099918 2.75355762c17.33053213 1.89780082 30.88292637 15.81578354 32.31850268 33.19055929 2.00840875 24.28137358 11.98059634 47.17257842 28.96882461 65.390303 40.06572146 42.96481565 106.91721443 46.49495893 151.21398443 8.22225124 13.19029874-11.39611989 32.60724679-11.84437362 46.30867171-1.06882276a512.46446706 512.46446706 0 0 1 83.03868701 82.28073131c10.89780167 13.59547278 10.63467122 33.00659997-0.62755499 46.30284971-15.74592626 18.58796999-24.87865685 41.82264263-25.74838443 66.7141063-2.05032334 58.72122083 42.74010681 108.49483435 101.13648982 112.74101874 17.39456853 1.26442496 31.44993792 14.68758243 33.51190414 32.00647168a513.27947435 513.27947435 0 0 1 3.2670117 78.6458021 516.57093575 516.57093575 0 0 1-2.75239368 38.21099918c-1.89896477 17.33053213-15.81578354 30.88176242-33.19055928 32.31850155-24.28137358 2.00840875-47.17257842 11.98059634-65.39146696 28.96882574-42.96481565 40.06572146-46.49495893 106.91721443-8.22225123 151.21398443 11.39611989 13.19029874 11.84437362 32.60724679 1.06882275 46.30867058a512.46446706 512.46446706 0 0 1-82.2807313 83.03868814c-13.59547278 10.89780167-33.00659997 10.63467122-46.30168576-0.62755499-18.58796999-15.74592626-41.82380658-24.87865685-66.71410632-25.74722161-58.72122083-2.05032334-108.49483435 42.74010681-112.74101873 101.13648981-1.26442496 17.39456853-14.68758243 31.44877397-32.00647055 33.51190528a513.27132331 513.27132331 0 0 1-78.64463814 3.26817564 515.93988779 515.93988779 0 0 1-38.21099919-2.75355761c-17.33053213-1.89780082-30.88292637-15.81578354-32.31850268-33.1905593-2.00840875-24.28137358-11.98059634-47.17257842-28.96882461-65.390303-40.06572146-42.96481565-106.91837952-46.49495893-151.21398442-8.22225124-13.19029874 11.39611989-32.60724679 11.84437362-46.30867172 1.06882276a512.46446706 512.46446706 0 0 1-83.038687-82.2807313c-10.89780167-13.59547278-10.63467122-33.00659997 0.62755498-46.30168576 15.74592626-18.58796999 24.87865685-41.82264263 25.74722048-66.71410632 2.05032334-58.72122083-42.74010681-108.49483435-101.13648981-112.74101874-17.39456853-1.26442496-31.44877397-14.68758243-33.51190414-32.00647054a513.27132331 513.27132331 0 0 1-3.26817679-78.64463815 515.93988779 515.93988779 0 0 1 2.75355762-38.21099918c1.89780082-17.33053213 15.81578354-30.88176242 33.19055929-32.31850269 24.28137358-2.0072448 47.17257842-11.98059634 65.39030301-28.9688246 42.96481565-40.06572146 46.49495893-106.91837952 8.22225237-151.21398442-11.39611989-13.19262777-11.84437362-32.61073977-1.06765881-46.3121647z" p-id="862"></path></svg>